<svg width="15" height="16" viewBox="0 0 15 16" fill="none" xmlns="http://www.w3.org/2000/svg">
<g clip-path="url(#clip0_145_614)">
<path fill-rule="evenodd" clip-rule="evenodd" d="M9.56465 1.63364C9.23189 1.49142 8.87069 1.42503 8.50817 1.43943C8.20551 1.45145 7.93155 1.53373 7.65391 1.6486C7.39025 1.75768 7.08431 1.91336 6.72145 2.098L2.08266 4.45834C1.99183 4.49265 1.90625 4.53233 1.82442 4.57821C1.41607 4.80721 1.07776 5.13983 0.844846 5.54131C0.5 6.13571 0.5 6.93158 0.5 8.52337V10.2783C0.5 11.8701 0.5 12.6659 0.844846 13.2603C1.07776 13.6618 1.41607 13.9945 1.82442 14.2235C2.42899 14.5625 3.2385 14.5625 4.8575 14.5625H10.1425C11.7615 14.5625 12.571 14.5625 13.1756 14.2235C13.584 13.9945 13.9222 13.6618 14.1552 13.2603C14.5 12.6659 14.5 11.8701 14.5 10.2783V8.52337C14.5 6.93158 14.5 6.13571 14.1552 5.54131C13.9222 5.13983 13.584 4.80721 13.1756 4.57821C12.9233 4.43673 12.6353 4.35429 12.2677 4.30625L10.9886 2.8825C10.7181 2.58141 10.4901 2.32754 10.2843 2.13217C10.0676 1.92642 9.84246 1.75239 9.56465 1.63364ZM10.4564 4.23927L10.0215 3.7552C9.73002 3.43082 9.5363 3.21591 9.3725 3.06038C9.21544 2.91127 9.12006 2.85072 9.04131 2.81707C8.89011 2.75242 8.72596 2.72225 8.56111 2.72879C8.47536 2.7322 8.36415 2.75476 8.16299 2.83801C7.95307 2.92484 7.69346 3.05641 7.30247 3.25535L5.36895 4.23917H10.1425C10.2507 4.23917 10.3552 4.23917 10.4564 4.23927ZM10.1425 5.52958H4.8575C4.0241 5.52958 3.48591 5.5308 3.07786 5.5668C2.68758 5.60123 2.54557 5.65936 2.47471 5.69911C2.27054 5.8136 2.10138 5.97991 1.98492 6.18065C1.9445 6.25032 1.88538 6.38994 1.85035 6.77365C1.81373 7.17483 1.8125 7.70396 1.8125 8.52337V10.2783C1.8125 11.0977 1.81373 11.6268 1.85035 12.028C1.88538 12.4117 1.9445 12.5513 1.98492 12.621C2.10138 12.8217 2.27054 12.988 2.47471 13.1025C2.54557 13.1423 2.68758 13.2004 3.07786 13.2348C3.48591 13.2709 4.0241 13.2721 4.8575 13.2721H10.1425C10.9759 13.2721 11.5141 13.2709 11.9222 13.2348C12.3124 13.2004 12.4544 13.1423 12.5253 13.1025C12.7294 12.988 12.8987 12.8217 13.015 12.621C13.0555 12.5513 13.1146 12.4117 13.1496 12.028C13.1863 11.6268 13.1875 11.0977 13.1875 10.2783V10.0461H8.8125C8.45008 10.0461 8.15625 9.75717 8.15625 9.40085C8.15625 9.04452 8.45008 8.75564 8.8125 8.75564H13.1875V8.52337C13.1875 7.70396 13.1863 7.17483 13.1496 6.77365C13.1146 6.38994 13.0555 6.25032 13.015 6.18065C12.8987 5.97991 12.7294 5.8136 12.5253 5.69911C12.4544 5.65936 12.3124 5.60123 11.9222 5.5668C11.5141 5.5308 10.9759 5.52958 10.1425 5.52958Z" fill="white"/>
</g>
<defs>
<clipPath id="clip0_145_614">
<rect width="14" height="14.875" fill="white" transform="translate(0.5 0.5625)"/>
</clipPath>
</defs>
</svg>
