<svg width="22" height="22" viewBox="0 0 22 22" fill="none" xmlns="http://www.w3.org/2000/svg">
<path d="M10.9959 22C9.78971 22 8.63863 21.8127 7.54262 21.438C6.44661 21.0689 5.43873 20.5455 4.51896 19.8678C3.60471 19.1956 2.80886 18.3995 2.13143 17.4793C1.45951 16.5592 0.936287 15.551 0.561772 14.4545C0.187257 13.3581 0 12.2066 0 11C0 9.79339 0.184504 8.64187 0.553511 7.54545C0.928026 6.44904 1.454 5.44353 2.13143 4.52893C2.80886 3.60882 3.60471 2.80992 4.51896 2.13223C5.43322 1.45455 6.43835 0.931129 7.53436 0.561983C8.63037 0.187328 9.78145 0 10.9876 0C12.1938 0 13.3448 0.187328 14.4409 0.561983C15.5424 0.931129 16.5503 1.45455 17.4645 2.13223C18.3843 2.80992 19.1829 3.60882 19.8603 4.52893C20.5377 5.44353 21.0637 6.44904 21.4382 7.54545C21.8127 8.64187 22 9.79339 22 11C22 12.2066 21.8127 13.3581 21.4382 14.4545C21.0637 15.551 20.5377 16.5592 19.8603 17.4793C19.1829 18.3995 18.3843 19.1956 17.4645 19.8678C16.5503 20.5455 15.5451 21.0689 14.4491 21.438C13.3531 21.8127 12.202 22 10.9959 22ZM7.51784 15.4628C7.80423 15.4628 8.04656 15.3636 8.24484 15.1653L10.9959 12.405L13.7469 15.1653C13.9342 15.3636 14.1737 15.4628 14.4656 15.4628C14.741 15.4628 14.9723 15.3691 15.1596 15.1818C15.3524 14.989 15.4487 14.7521 15.4487 14.4711C15.4487 14.1956 15.3524 13.9642 15.1596 13.7769L12.392 11.0165L15.1679 8.23141C15.3606 8.03857 15.457 7.80716 15.457 7.53719C15.457 7.26722 15.3606 7.03857 15.1679 6.85124C14.9806 6.66391 14.752 6.57025 14.4822 6.57025C14.2068 6.57025 13.9727 6.66942 13.7799 6.86777L10.9959 9.63636L8.22005 6.86777C8.02729 6.68044 7.79322 6.58678 7.51784 6.58678C7.24246 6.58678 7.01114 6.68044 6.82388 6.86777C6.63663 7.04959 6.543 7.27824 6.543 7.55372C6.543 7.81818 6.63938 8.04683 6.83214 8.23967L9.60796 11.0165L6.83214 13.7851C6.63938 13.9835 6.543 14.2121 6.543 14.4711C6.543 14.7521 6.63663 14.989 6.82388 15.1818C7.01114 15.3691 7.24246 15.4628 7.51784 15.4628Z" fill="white"/>
</svg>
