<svg width="22" height="22" viewBox="0 0 22 22" fill="none" xmlns="http://www.w3.org/2000/svg">
<path fill-rule="evenodd" clip-rule="evenodd" d="M11 22C17.0751 22 22 17.0751 22 11C22 4.92487 17.0751 0 11 0C4.92487 0 0 4.92487 0 11C0 17.0751 4.92487 22 11 22ZM12.0625 5.02197H9.9292L10.0952 13.0488H11.8965L12.0625 5.02197ZM9.78809 15.9873C9.78809 16.6431 10.3193 17.166 10.9917 17.166C11.6724 17.166 12.2036 16.6431 12.2036 15.9873C12.2036 15.3315 11.6724 14.8169 10.9917 14.8169C10.3193 14.8169 9.78809 15.3315 9.78809 15.9873Z" fill="white"/>
</svg>
