<svg width="22" height="22" viewBox="0 0 22 22" fill="none" xmlns="http://www.w3.org/2000/svg">
<path d="M10.9959 22C9.78971 22 8.63863 21.8127 7.54262 21.438C6.44661 21.0689 5.43873 20.5455 4.51896 19.8678C3.60471 19.1956 2.80886 18.3995 2.13143 17.4793C1.45951 16.5592 0.936287 15.551 0.561772 14.4545C0.187257 13.3581 0 12.2066 0 11C0 9.79339 0.184504 8.64187 0.553511 7.54545C0.928026 6.44904 1.454 5.44353 2.13143 4.52893C2.80886 3.60882 3.60471 2.80992 4.51896 2.13223C5.43322 1.45455 6.43835 0.93113 7.53436 0.561983C8.63037 0.187328 9.78145 0 10.9876 0C12.1938 0 13.3448 0.187328 14.4409 0.561983C15.5424 0.93113 16.5503 1.45455 17.4645 2.13223C18.3843 2.80992 19.1829 3.60882 19.8603 4.52893C20.5377 5.44353 21.0637 6.44904 21.4382 7.54545C21.8127 8.64187 22 9.79339 22 11C22 12.2066 21.8127 13.3581 21.4382 14.4545C21.0637 15.551 20.5377 16.5592 19.8603 17.4793C19.1829 18.3995 18.3843 19.1956 17.4645 19.8678C16.5503 20.5455 15.5451 21.0689 14.4491 21.438C13.3531 21.8127 12.202 22 10.9959 22ZM9.8145 16.2562C10.0018 16.2562 10.1752 16.2121 10.335 16.124C10.5002 16.0303 10.6406 15.8981 10.7563 15.7273L15.837 7.8595C15.9086 7.74931 15.9692 7.63361 16.0188 7.5124C16.0683 7.39118 16.0931 7.27273 16.0931 7.15702C16.0931 6.89256 15.9912 6.67769 15.7875 6.5124C15.5892 6.3416 15.3634 6.2562 15.11 6.2562C14.9448 6.2562 14.7906 6.30303 14.6474 6.39669C14.5097 6.48485 14.3858 6.61708 14.2756 6.79339L9.78145 13.9256L7.64176 11.281C7.52059 11.1212 7.39392 11.0083 7.26173 10.9421C7.13506 10.876 6.99186 10.843 6.83214 10.843C6.56778 10.843 6.34197 10.9366 6.15471 11.124C5.97296 11.3113 5.88209 11.5344 5.88209 11.7934C5.88209 11.9256 5.90412 12.0523 5.94818 12.1736C5.99775 12.2893 6.06935 12.405 6.16297 12.5207L8.83139 15.7355C8.97459 15.9118 9.12605 16.0441 9.28577 16.1322C9.44549 16.2149 9.62173 16.2562 9.8145 16.2562Z" fill="white"/>
</svg>
